<svg width="37" height="36" viewBox="0 0 37 36" fill="none" xmlns="http://www.w3.org/2000/svg">
<path d="M11 10.5H9.5C8.70435 10.5 7.94129 10.8161 7.37868 11.3787C6.81607 11.9413 6.5 12.7044 6.5 13.5V27C6.5 27.7956 6.81607 28.5587 7.37868 29.1213C7.94129 29.6839 8.70435 30 9.5 30H23C23.7956 30 24.5587 29.6839 25.1213 29.1213C25.6839 28.5587 26 27.7956 26 27V25.5M24.5 7.5L29 12M31.0775 9.8775C31.6683 9.28673 32.0002 8.48547 32.0002 7.65C32.0002 6.81453 31.6683 6.01327 31.0775 5.4225C30.4867 4.83173 29.6855 4.49984 28.85 4.49984C28.0145 4.49984 27.2133 4.83173 26.6225 5.4225L14 18V22.5H18.5L31.0775 9.8775Z" stroke="#6729CC" stroke-width="2" stroke-linecap="round" stroke-linejoin="round"/>
</svg>
