<svg width="31" height="29" viewBox="0 0 31 29" fill="none" xmlns="http://www.w3.org/2000/svg">
<path d="M22.25 0.5C26.8064 0.5 30.5 4.25 30.5 9.5C30.5 20 19.25 26 15.5 28.25C11.75 26 0.5 20 0.5 9.5C0.5 4.25 4.25 0.5 8.75 0.5C11.54 0.5 14 2 15.5 3.5C17 2 19.46 0.5 22.25 0.5ZM16.9009 23.9057C18.2232 23.0728 19.415 22.2433 20.5324 21.3544C25.0006 17.7995 27.5 13.9152 27.5 9.5C27.5 5.96114 25.1945 3.5 22.25 3.5C20.6362 3.5 18.889 4.35366 17.6213 5.62132L15.5 7.74265L13.3787 5.62132C12.111 4.35366 10.3638 3.5 8.75 3.5C5.83859 3.5 3.5 5.98475 3.5 9.5C3.5 13.9152 5.9994 17.7995 10.4677 21.3544C11.585 22.2433 12.7768 23.0728 14.0991 23.9057C14.5469 24.1878 14.9916 24.4593 15.5 24.7628C16.0084 24.4593 16.4531 24.1878 16.9009 23.9057Z" fill="#6729CC"/>
</svg>
