<svg width="24" height="24" viewBox="0 0 24 24" fill="none" xmlns="http://www.w3.org/2000/svg">
<path d="M20.0859 8.36073L13.8359 3.36073C12.6145 2.38744 10.7061 2.3779 9.49426 3.35118L3.24427 8.36073C2.34732 9.07638 1.80343 10.5077 1.99427 11.6336L3.19656 18.8283C3.47327 20.4409 4.97136 21.71 6.60304 21.71H16.7175C18.3301 21.71 19.8569 20.4123 20.1336 18.8187L21.3359 11.6241C21.5076 10.5077 20.9637 9.07638 20.0859 8.36073ZM12.3759 17.8932C12.3759 18.2844 12.0515 18.6088 11.6603 18.6088C11.2691 18.6088 10.9446 18.2844 10.9446 17.8932V15.0306C10.9446 14.6394 11.2691 14.3149 11.6603 14.3149C12.0515 14.3149 12.3759 14.6394 12.3759 15.0306V17.8932Z" fill="#6729CC"/>
</svg>
