<svg width="27" height="33" viewBox="0 0 27 33" fill="none" xmlns="http://www.w3.org/2000/svg">
<path d="M13.5 28.3493L20.9245 20.9246C25.0251 16.8242 25.0251 10.1759 20.9245 6.07538C16.8242 1.97487 10.1759 1.97487 6.07538 6.07538C1.97487 10.1759 1.97487 16.8242 6.07538 20.9246L13.5 28.3493ZM13.5 32.5919L3.95406 23.046C-1.31802 17.7738 -1.31802 9.22614 3.95406 3.95406C9.22614 -1.31802 17.7738 -1.31802 23.046 3.95406C28.3181 9.22614 28.3181 17.7738 23.046 23.046L13.5 32.5919ZM13.5 16.5C15.1569 16.5 16.5 15.1569 16.5 13.5C16.5 11.8431 15.1569 10.5 13.5 10.5C11.8431 10.5 10.5 11.8431 10.5 13.5C10.5 15.1569 11.8431 16.5 13.5 16.5ZM13.5 19.5C10.1863 19.5 7.5 16.8137 7.5 13.5C7.5 10.1863 10.1863 7.5 13.5 7.5C16.8137 7.5 19.5 10.1863 19.5 13.5C19.5 16.8137 16.8137 19.5 13.5 19.5Z" fill="#6729CC"/>
</svg>
