<svg width="25" height="28" viewBox="0 0 25 28" fill="none" xmlns="http://www.w3.org/2000/svg">
<path d="M21.8333 11.3333H23.1667C23.9031 11.3333 24.5 11.9303 24.5 12.6667V26C24.5 26.7364 23.9031 27.3333 23.1667 27.3333H1.83333C1.09696 27.3333 0.5 26.7364 0.5 26V12.6667C0.5 11.9303 1.09696 11.3333 1.83333 11.3333H3.16667V10C3.16667 4.84535 7.34535 0.666668 12.5 0.666668C17.6547 0.666668 21.8333 4.84535 21.8333 10V11.3333ZM3.16667 14V24.6667H21.8333V14H3.16667ZM11.1667 16.6667H13.8333V22H11.1667V16.6667ZM19.1667 11.3333V10C19.1667 6.31811 16.1819 3.33333 12.5 3.33333C8.81811 3.33333 5.83333 6.31811 5.83333 10V11.3333H19.1667Z" fill="#6729CC"/>
</svg>
