<svg width="293" height="61" viewBox="0 0 293 61" fill="none" xmlns="http://www.w3.org/2000/svg">
<path d="M14.5051 48.5L1.11305 14.9H8.74505L15.7531 33.092C16.1371 34.084 16.4571 34.964 16.7131 35.732C17.0011 36.468 17.2411 37.172 17.4331 37.844C17.6571 38.484 17.8651 39.124 18.0571 39.764C18.2491 40.372 18.4411 41.044 18.6331 41.78L17.2411 41.828C17.4971 40.836 17.7531 39.924 18.0091 39.092C18.2651 38.228 18.5531 37.332 18.8731 36.404C19.1931 35.476 19.5931 34.372 20.0731 33.092L26.6971 14.9H34.2811L20.7931 48.5H14.5051ZM47.4004 48.98C44.6484 48.98 42.2484 48.42 40.2004 47.3C38.1524 46.18 36.5524 44.644 35.4004 42.692C34.2484 40.74 33.6724 38.5 33.6724 35.972C33.6724 34.02 33.9924 32.228 34.6324 30.596C35.2724 28.964 36.1684 27.556 37.3204 26.372C38.4724 25.156 39.8324 24.228 41.4004 23.588C43.0004 22.916 44.7284 22.58 46.5844 22.58C48.3124 22.58 49.9124 22.9 51.3844 23.54C52.8564 24.148 54.1204 25.028 55.1764 26.18C56.2644 27.3 57.0964 28.628 57.6724 30.164C58.2484 31.7 58.5044 33.38 58.4404 35.204L58.3924 37.316H37.9924L36.8884 33.14H52.7764L52.0084 34.004V32.948C51.9444 32.084 51.6564 31.3 51.1444 30.596C50.6644 29.892 50.0404 29.348 49.2724 28.964C48.5044 28.58 47.6404 28.388 46.6804 28.388C45.2724 28.388 44.0724 28.66 43.0804 29.204C42.1204 29.748 41.3844 30.548 40.8724 31.604C40.3604 32.66 40.1044 33.94 40.1044 35.444C40.1044 36.98 40.4244 38.308 41.0644 39.428C41.7364 40.548 42.6644 41.428 43.8484 42.068C45.0644 42.676 46.4884 42.98 48.1204 42.98C49.2404 42.98 50.2644 42.804 51.1924 42.452C52.1204 42.1 53.1124 41.492 54.1684 40.628L57.4324 45.188C56.5044 46.02 55.4804 46.724 54.3604 47.3C53.2404 47.844 52.0884 48.26 50.9044 48.548C49.7204 48.836 48.5524 48.98 47.4004 48.98ZM65.9254 48.5V16.676H72.7414V48.5H65.9254ZM61.1734 29.204V23.108H77.9254V29.204H61.1734Z" fill="#6729CC"/>
<path d="M87.5851 29.612C87.5851 26.316 88.3211 23.372 89.7931 20.78C91.2971 18.156 93.3291 16.124 95.8891 14.684C98.4811 13.212 101.377 12.476 104.577 12.476C108.321 12.476 111.601 13.436 114.417 15.356C117.233 17.276 119.201 19.932 120.321 23.324H112.593C111.825 21.724 110.737 20.524 109.329 19.724C107.953 18.924 106.353 18.524 104.529 18.524C102.577 18.524 100.833 18.988 99.2971 19.916C97.7931 20.812 96.6091 22.092 95.7451 23.756C94.9131 25.42 94.4971 27.372 94.4971 29.612C94.4971 31.82 94.9131 33.772 95.7451 35.468C96.6091 37.132 97.7931 38.428 99.2971 39.356C100.833 40.252 102.577 40.7 104.529 40.7C106.353 40.7 107.953 40.3 109.329 39.5C110.737 38.668 111.825 37.452 112.593 35.852H120.321C119.201 39.276 117.233 41.948 114.417 43.868C111.633 45.756 108.353 46.7 104.577 46.7C101.377 46.7 98.4811 45.98 95.8891 44.54C93.3291 43.068 91.2971 41.036 89.7931 38.444C88.3211 35.852 87.5851 32.908 87.5851 29.612Z" fill="#6729CC"/>
<path d="M171.406 19.436C174.574 19.436 177.134 20.444 179.086 22.46C181.038 24.444 182.014 27.228 182.014 30.812V46.412H175.294V31.724C175.294 29.612 174.766 27.996 173.71 26.876C172.654 25.724 171.214 25.148 169.39 25.148C167.534 25.148 166.062 25.724 164.974 26.876C163.918 27.996 163.39 29.612 163.39 31.724V46.412H156.67V19.82H163.39V23.132C164.286 21.98 165.422 21.084 166.798 20.444C168.206 19.772 169.742 19.436 171.406 19.436Z" fill="#6729CC"/>
<path d="M203.141 19.436C206.309 19.436 208.869 20.444 210.821 22.46C212.773 24.444 213.749 27.228 213.749 30.812V46.412H207.029V31.724C207.029 29.612 206.501 27.996 205.445 26.876C204.389 25.724 202.949 25.148 201.125 25.148C199.269 25.148 197.797 25.724 196.709 26.876C195.653 27.996 195.125 29.612 195.125 31.724V46.412H188.405V19.82H195.125V23.132C196.021 21.98 197.157 21.084 198.533 20.444C199.941 19.772 201.477 19.436 203.141 19.436Z" fill="#6729CC"/>
<path d="M244.859 32.54C244.859 33.5 244.795 34.364 244.667 35.132H225.227C225.387 37.052 226.059 38.556 227.243 39.644C228.427 40.732 229.883 41.276 231.611 41.276C234.107 41.276 235.883 40.204 236.939 38.06H244.187C243.419 40.62 241.947 42.732 239.771 44.396C237.595 46.028 234.923 46.844 231.755 46.844C229.195 46.844 226.891 46.284 224.843 45.164C222.827 44.012 221.243 42.396 220.091 40.316C218.971 38.236 218.411 35.836 218.411 33.116C218.411 30.364 218.971 27.948 220.091 25.868C221.211 23.788 222.779 22.188 224.795 21.068C226.811 19.948 229.131 19.388 231.755 19.388C234.283 19.388 236.539 19.932 238.523 21.02C240.539 22.108 242.091 23.66 243.179 25.676C244.299 27.66 244.859 29.948 244.859 32.54ZM237.899 30.62C237.867 28.892 237.243 27.516 236.027 26.492C234.811 25.436 233.323 24.908 231.563 24.908C229.899 24.908 228.491 25.42 227.339 26.444C226.219 27.436 225.531 28.828 225.275 30.62H237.899Z" fill="#6729CC"/>
<path d="M248.036 33.116C248.036 30.364 248.596 27.964 249.716 25.916C250.836 23.836 252.388 22.236 254.372 21.116C256.356 19.964 258.628 19.388 261.188 19.388C264.484 19.388 267.204 20.22 269.348 21.884C271.524 23.516 272.98 25.82 273.716 28.796H266.468C266.084 27.644 265.428 26.748 264.5 26.108C263.604 25.436 262.484 25.1 261.14 25.1C259.22 25.1 257.7 25.804 256.58 27.212C255.46 28.588 254.9 30.556 254.9 33.116C254.9 35.644 255.46 37.612 256.58 39.02C257.7 40.396 259.22 41.084 261.14 41.084C263.86 41.084 265.636 39.868 266.468 37.436H273.716C272.98 40.316 271.524 42.604 269.348 44.3C267.172 45.996 264.452 46.844 261.188 46.844C258.628 46.844 256.356 46.284 254.372 45.164C252.388 44.012 250.836 42.412 249.716 40.364C248.596 38.284 248.036 35.868 248.036 33.116Z" fill="#6729CC"/>
<path d="M286.463 25.34V38.204C286.463 39.1 286.671 39.756 287.087 40.172C287.535 40.556 288.271 40.748 289.295 40.748H292.415V46.412H288.191C282.527 46.412 279.695 43.66 279.695 38.156V25.34H276.527V19.82H279.695V13.244H286.463V19.82H292.415V25.34H286.463Z" fill="#6729CC"/>
<circle cx="137.872" cy="31.9491" r="12.8571" fill="white"/>
<path d="M150.729 31.9491C150.729 39.0499 144.973 44.8063 137.872 44.8063C130.771 44.8063 125.015 39.0499 125.015 31.9491C125.015 24.8483 130.771 19.092 137.872 19.092" stroke="#6729CC" stroke-width="2.14286" stroke-linecap="round" stroke-linejoin="round"/>
<path d="M125.015 31.9492H139.85" stroke="#6729CC" stroke-width="2.14286" stroke-linecap="round" stroke-linejoin="round"/>
<path d="M137.872 19.092C134.901 22.7447 133.17 27.2474 132.927 31.9491C133.17 36.6509 134.901 41.1535 137.872 44.8063C140.21 41.9305 141.781 38.5279 142.462 34.9162" stroke="#6729CC" stroke-width="2.14286" stroke-linecap="round" stroke-linejoin="round"/>
<path d="M139.758 25.5042C139.006 25.3734 139.006 24.2939 139.758 24.163C142.483 23.6891 144.649 21.614 145.241 18.9127L145.286 18.7057C145.449 17.9624 146.507 17.9578 146.676 18.6996L146.731 18.9409C147.344 21.6294 149.512 23.687 152.229 24.1596C152.984 24.2911 152.984 25.3761 152.229 25.5076C149.512 25.9803 147.344 28.0378 146.731 30.7264L146.676 30.9677C146.507 31.7094 145.449 31.7048 145.286 30.9616L145.241 30.7545C144.649 28.0532 142.483 25.9782 139.758 25.5042Z" fill="#6729CC"/>
<path d="M139.758 25.5042C139.006 25.3734 139.006 24.2939 139.758 24.163C142.483 23.6891 144.649 21.614 145.241 18.9127L145.286 18.7057C145.449 17.9624 146.507 17.9578 146.676 18.6996L146.731 18.9409C147.344 21.6294 149.512 23.687 152.229 24.1596C152.984 24.2911 152.984 25.3761 152.229 25.5076C149.512 25.9803 147.344 28.0378 146.731 30.7264L146.676 30.9677C146.507 31.7094 145.449 31.7048 145.286 30.9616L145.241 30.7545C144.649 28.0532 142.483 25.9782 139.758 25.5042Z" stroke="#6729CC" stroke-width="2.14286" stroke-linecap="round" stroke-linejoin="round"/>
</svg>
