<svg width="24" height="24" viewBox="0 0 24 24" fill="none" xmlns="http://www.w3.org/2000/svg">
<path d="M12.0725 11.0897C11.9771 11.0802 11.8626 11.0802 11.7576 11.0897C9.48663 11.0134 7.6832 9.15269 7.6832 6.86262C7.6832 4.52483 9.57251 2.62598 11.9198 2.62598C14.2576 2.62598 16.1565 4.52483 16.1565 6.86262C16.1469 9.15269 14.3435 11.0134 12.0725 11.0897Z" stroke="#A2A2A2" stroke-width="1.4313" stroke-linecap="round" stroke-linejoin="round"/>
<path d="M7.30151 14.6107C4.99235 16.1565 4.99235 18.6755 7.30151 20.2118C9.92556 21.9675 14.229 21.9675 16.853 20.2118C19.1622 18.666 19.1622 16.1469 16.853 14.6107C14.2385 12.8645 9.9351 12.8645 7.30151 14.6107Z" stroke="#A2A2A2" stroke-width="1.4313" stroke-linecap="round" stroke-linejoin="round"/>
</svg>
