<svg width="32" height="32" viewBox="0 0 32 32" fill="none" xmlns="http://www.w3.org/2000/svg">
<path d="M8 3.5V0.5H11V3.5H20V0.5H23V3.5H29C29.8284 3.5 30.5 4.17158 30.5 5V12.5H27.5V6.5H23V9.5H20V6.5H11V9.5H8V6.5H3.5V27.5H12.5V30.5H2C1.17158 30.5 0.5 29.8284 0.5 29V5C0.5 4.17158 1.17158 3.5 2 3.5H8ZM23 17C19.6863 17 17 19.6863 17 23C17 26.3137 19.6863 29 23 29C26.3137 29 29 26.3137 29 23C29 19.6863 26.3137 17 23 17ZM14 23C14 18.0294 18.0294 14 23 14C27.9706 14 32 18.0294 32 23C32 27.9706 27.9706 32 23 32C18.0294 32 14 27.9706 14 23ZM21.5 18.5V23.6213L24.9394 27.0606L27.0606 24.9394L24.5 22.3787V18.5H21.5Z" fill="#6729CC"/>
</svg>
