<svg width="27" height="26" viewBox="0 0 27 26" fill="none" xmlns="http://www.w3.org/2000/svg">
<path d="M1.5 5.5V4C1.5 3.20435 1.81607 2.44129 2.37868 1.87868C2.94129 1.31607 3.70435 1 4.5 1H7.5M1.5 20.5V22C1.5 22.7956 1.81607 23.5587 2.37868 24.1213C2.94129 24.6839 3.70435 25 4.5 25H7.5M19.5 1H22.5C23.2956 1 24.0587 1.31607 24.6213 1.87868C25.1839 2.44129 25.5 3.20435 25.5 4V5.5M19.5 25H22.5C23.2956 25 24.0587 24.6839 24.6213 24.1213C25.1839 23.5587 25.5 22.7956 25.5 22V20.5M10.5 11.5V14.5M24 11.5V14.5M3 11.5H4.5V14.5H3V11.5ZM16.5 11.5H18V14.5H16.5V11.5Z" stroke="#6729CC" stroke-width="2" stroke-linecap="round" stroke-linejoin="round"/>
</svg>
